<?xml version="1.0" encoding="utf-8"?>
<!-- Generator: Adobe Illustrator 18.0.0, SVG Export Plug-In . SVG Version: 6.00 Build 0)  -->
<!DOCTYPE svg PUBLIC "-//W3C//DTD SVG 1.1//EN" "http://www.w3.org/Graphics/SVG/1.1/DTD/svg11.dtd">
<svg version="1.1" id="Layer_1" xmlns="http://www.w3.org/2000/svg" xmlns:xlink="http://www.w3.org/1999/xlink" x="0px" y="0px"
	 viewBox="0 0 578 278.1" enable-background="new 0 0 578 278.1" xml:space="preserve">
<g>
	<circle fill="#3B50A3" cx="303.2" cy="251.5" r="9.5"/>
	<path fill="#3B50A3" d="M240.2,26l49,200.5c0.5,1.9-0.7,3.9-2.6,4.3c-1.8,0.4-3.6-0.6-4.2-2.3L213.4,34c-2.6-7.3,1.2-15.3,8.5-17.9
		c7.3-2.6,15.3,1.2,17.9,8.5C239.9,25.1,240.1,25.6,240.2,26z"/>
	<path fill="#1F7DBB" d="M385.6,34l-62.4,172.5c-0.7,1.9-2.7,2.8-4.6,2.1c-1.7-0.6-2.7-2.4-2.3-4.2L358.8,26
		c1.8-7.5,9.4-12.2,16.9-10.4c7.5,1.8,12.2,9.4,10.4,16.9C386,33,385.8,33.5,385.6,34z"/>
	<g>
		<path fill="#1F7DBB" d="M50.1,225.8l-16.1,36h-1.7l-15.9-36h3.9l12.9,30l13.1-30H50.1z"/>
		<path fill="#1F7DBB" d="M60.1,240.9c-0.1,0.6-0.1,1.2-0.1,1.9c0,4.6,1.6,8.5,4.9,11.7c3.3,3.2,7.2,4.9,11.8,4.9
			c4.6,0,8.5-1.6,11.8-4.9c0.6-0.6,1.1-1.1,1.6-1.7l3.5,1.2c-0.4,0.7-1.3,1.7-2.6,3c-3.9,4-8.7,5.9-14.3,5.9c-5.5,0-10.3-2-14.2-5.9
			c-3.9-3.9-5.9-8.7-5.9-14.2c0-5.6,2-10.3,5.9-14.3c3.9-3.9,8.7-5.9,14.2-5.9c5.6,0,10.3,2,14.3,5.9c3.5,3.5,5.2,7.6,5.2,12.4H60.1
			z M60.7,237.5h31.6c-0.8-2.5-2.1-4.7-3.9-6.6c-3.3-3.3-7.2-4.9-11.8-4.9c-4.6,0-8.5,1.6-11.8,4.9
			C62.9,232.9,61.5,235.1,60.7,237.5z"/>
		<path fill="#1F7DBB" d="M137,253.2l3.5,1.3c-0.6,0.9-1.4,1.7-2.2,2.5c-3.9,4-8.7,5.9-14.3,5.9c-5.5,0-10.3-2-14.2-5.9
			c-3.9-3.9-5.9-8.7-5.9-14.3c0-5.6,2-10.3,5.9-14.2c3.9-3.9,8.7-5.9,14.2-5.9c5.6,0,10.3,2,14.3,5.9c0.8,0.8,1.5,1.6,2.2,2.5
			l-3.5,1.3c-0.4-0.4-0.7-0.9-1.2-1.3c-3.3-3.2-7.2-4.9-11.8-4.9c-4.6,0-8.5,1.6-11.7,4.9c-3.3,3.3-4.9,7.2-4.9,11.8
			s1.6,8.5,4.9,11.8c3.3,3.3,7.2,4.9,11.7,4.9c4.6,0,8.5-1.6,11.8-4.9C136.3,254,136.7,253.6,137,253.2z"/>
		<path fill="#1F7DBB" d="M155.6,225.8v-15.3h3.3v15.3h7.3v3.3h-7.3v32.7h-3.3v-32.7h-7.3v-3.3H155.6z"/>
		<path fill="#1F7DBB" d="M194.9,222.6c5.6,0,10.3,2,14.3,5.9c3.9,3.9,5.9,8.7,5.9,14.3c0,5.5-2,10.3-5.9,14.2
			c-3.9,3.9-8.7,5.9-14.3,5.9c-5.5,0-10.3-2-14.2-5.9c-3.9-3.9-5.9-8.7-5.9-14.2c0-5.6,2-10.3,5.9-14.3
			C184.7,224.5,189.4,222.6,194.9,222.6z M183.2,231c-3.3,3.3-4.9,7.2-4.9,11.8c0,4.6,1.6,8.5,4.9,11.7c3.3,3.2,7.2,4.9,11.8,4.9
			c4.6,0,8.5-1.6,11.8-4.9c3.3-3.2,4.9-7.2,4.9-11.7c0-4.6-1.6-8.5-4.9-11.8c-3.3-3.3-7.2-4.9-11.8-4.9
			C190.3,226.1,186.4,227.7,183.2,231z"/>
		<path fill="#1F7DBB" d="M239.2,228.7c-2.4,0.4-4.7,1.9-6.9,4.5c-2.3,2.6-3.4,5.3-3.4,8v20.7h-3.3v-36h3.3v7.8
			c1.4-3.6,4.2-6.3,8.5-8.1L239.2,228.7z"/>
	</g>
	<g>
		<path fill="#1F7DBB" d="M405.3,253.2l3.5,1.3c-0.6,0.9-1.4,1.7-2.2,2.5c-3.9,4-8.7,5.9-14.3,5.9c-5.5,0-10.3-2-14.2-5.9
			c-3.9-3.9-5.9-8.7-5.9-14.3c0-5.6,2-10.3,5.9-14.2c3.9-3.9,8.7-5.9,14.2-5.9c5.6,0,10.3,2,14.3,5.9c0.8,0.8,1.5,1.6,2.2,2.5
			l-3.5,1.3c-0.4-0.4-0.7-0.9-1.2-1.3c-3.3-3.2-7.2-4.9-11.8-4.9c-4.6,0-8.5,1.6-11.7,4.9c-3.3,3.3-4.9,7.2-4.9,11.8
			s1.6,8.5,4.9,11.8c3.3,3.3,7.2,4.9,11.7,4.9c4.6,0,8.5-1.6,11.8-4.9C404.6,254,405,253.6,405.3,253.2z"/>
		<path fill="#1F7DBB" d="M424.1,214c0.6,0.6,1,1.4,1,2.3c0,0.9-0.3,1.7-1,2.4c-0.7,0.6-1.4,1-2.3,1c-0.9,0-1.7-0.3-2.3-1
			c-0.7-0.6-1-1.4-1-2.4c0-0.9,0.3-1.6,1-2.3c0.6-0.6,1.4-1,2.3-1C422.7,213.1,423.5,213.4,424.1,214z M423.4,225.8v36h-3.3v-36
			H423.4z"/>
		<path fill="#1F7DBB" d="M440,233.9v28h-3.3v-36h3.3v2.3c3-3,6.5-4.5,10.5-4.5c4.3,0,7.7,1.3,10.4,4c2.7,2.7,4,6,4.1,10.1v24.1
			h-3.3v-23.8c0-3.1-1.1-5.7-3.3-7.8c-2.2-2.2-4.8-3.2-7.9-3.2c-3,0-5.6,1.1-7.8,3.2C441.5,231.4,440.6,232.6,440,233.9z"/>
		<path fill="#1F7DBB" d="M508.6,253.2l3.5,1.3c-0.6,0.9-1.4,1.7-2.2,2.5c-3.9,4-8.7,5.9-14.3,5.9c-5.5,0-10.3-2-14.2-5.9
			c-3.9-3.9-5.9-8.7-5.9-14.3c0-5.6,2-10.3,5.9-14.2c3.9-3.9,8.7-5.9,14.2-5.9c5.6,0,10.3,2,14.3,5.9c0.8,0.8,1.5,1.6,2.2,2.5
			l-3.5,1.3c-0.4-0.4-0.7-0.9-1.2-1.3c-3.3-3.2-7.2-4.9-11.8-4.9c-4.6,0-8.5,1.6-11.7,4.9c-3.3,3.3-4.9,7.2-4.9,11.8
			s1.6,8.5,4.9,11.8c3.2,3.3,7.2,4.9,11.7,4.9c4.6,0,8.5-1.6,11.8-4.9C507.8,254,508.2,253.6,508.6,253.2z"/>
		<path fill="#1F7DBB" d="M541.6,222.6c5.6,0,10.3,2,14.3,5.9c3.9,3.9,5.9,8.7,5.9,14.3c0,5.5-2,10.3-5.9,14.2
			c-3.9,3.9-8.7,5.9-14.3,5.9c-5.5,0-10.3-2-14.2-5.9c-3.9-3.9-5.9-8.7-5.9-14.2c0-5.6,2-10.3,5.9-14.3
			C531.3,224.5,536.1,222.6,541.6,222.6z M529.8,231c-3.3,3.3-4.9,7.2-4.9,11.8c0,4.6,1.6,8.5,4.9,11.7c3.2,3.2,7.2,4.9,11.8,4.9
			c4.6,0,8.5-1.6,11.8-4.9c3.3-3.2,4.9-7.2,4.9-11.7c0-4.6-1.6-8.5-4.9-11.8c-3.3-3.3-7.2-4.9-11.8-4.9
			C537,226.1,533.1,227.7,529.8,231z"/>
	</g>
</g>
</svg>
